{
    "asset" : {
        "generator" : "Khronos glTF Blender I/O v1.7.33",
        "version" : "2.0"
    },
    "scene" : 0,
    "scenes" : [
        {
            "name" : "Scene",
            "nodes" : [
                0
            ]
        }
    ],
    "nodes" : [
        {
            "mesh" : 0,
            "name" : "leica_mod1",
            "rotation" : [
                0.7071068286895752,
                0,
                0,
                0.7071067094802856
            ],
            "scale" : [
                0.009999999776482582,
                0.009999999776482582,
                0.009999999776482582
            ]
        }
    ],
    "materials" : [
        {
            "doubleSided" : true,
            "name" : "logo_leica1.002",
            "pbrMetallicRoughness" : {
                "baseColorTexture" : {
                    "index" : 0
                },
                "metallicFactor" : 0,
                "roughnessFactor" : 0
            }
        },
        {
            "doubleSided" : true,
            "name" : "Black1.002",
            "pbrMetallicRoughness" : {
                "baseColorFactor" : [
                    0.0313725508749485,
                    0.0313725508749485,
                    0.0313725508749485,
                    1
                ],
                "metallicFactor" : 0,
                "roughnessFactor" : 0
            }
        },
        {
            "doubleSided" : true,
            "name" : "White1.002",
            "pbrMetallicRoughness" : {
                "metallicFactor" : 0,
                "roughnessFactor" : 0
            }
        },
        {
            "doubleSided" : true,
            "name" : "Glass1.002",
            "pbrMetallicRoughness" : {
                "baseColorFactor" : [
                    0.5,
                    0.5,
                    0.5,
                    0.10000002384185791
                ],
                "metallicFactor" : 0,
                "roughnessFactor" : 0.4343145787715912
            }
        },
        {
            "alphaMode" : "BLEND",
            "doubleSided" : true,
            "name" : "lens1.002",
            "pbrMetallicRoughness" : {
                "baseColorTexture" : {
                    "index" : 1
                },
                "metallicFactor" : 0.5,
                "roughnessFactor" : 0.5527864098548889
            }
        }
    ],
    "meshes" : [
        {
            "name" : "Mesh.084",
            "primitives" : [
                {
                    "attributes" : {
                        "POSITION" : 0,
                        "NORMAL" : 1,
                        "TEXCOORD_0" : 2
                    },
                    "indices" : 3,
                    "material" : 0
                },
                {
                    "attributes" : {
                        "POSITION" : 4,
                        "NORMAL" : 5,
                        "TEXCOORD_0" : 6
                    },
                    "indices" : 7,
                    "material" : 1
                },
                {
                    "attributes" : {
                        "POSITION" : 8,
                        "NORMAL" : 9,
                        "TEXCOORD_0" : 10
                    },
                    "indices" : 11,
                    "material" : 2
                },
                {
                    "attributes" : {
                        "POSITION" : 12,
                        "NORMAL" : 13,
                        "TEXCOORD_0" : 14
                    },
                    "indices" : 15,
                    "material" : 3
                },
                {
                    "attributes" : {
                        "POSITION" : 16,
                        "NORMAL" : 17,
                        "TEXCOORD_0" : 18
                    },
                    "indices" : 19,
                    "material" : 4
                }
            ]
        }
    ],
    "textures" : [
        {
            "sampler" : 0,
            "source" : 0
        },
        {
            "sampler" : 0,
            "source" : 1
        }
    ],
    "images" : [
        {
            "bufferView" : 4,
            "mimeType" : "image/png",
            "name" : "leica logo"
        },
        {
            "bufferView" : 21,
            "mimeType" : "image/png",
            "name" : "3"
        }
    ],
    "accessors" : [
        {
            "bufferView" : 0,
            "componentType" : 5126,
            "count" : 338,
            "max" : [
                6.526758193969727,
                8.808952331542969,
                10.162103652954102
            ],
            "min" : [
                -5.224462032318115,
                -6.951755523681641,
                -7.978017807006836
            ],
            "type" : "VEC3"
        },
        {
            "bufferView" : 1,
            "componentType" : 5126,
            "count" : 338,
            "type" : "VEC3"
        },
        {
            "bufferView" : 2,
            "componentType" : 5126,
            "count" : 338,
            "type" : "VEC2"
        },
        {
            "bufferView" : 3,
            "componentType" : 5123,
            "count" : 1128,
            "type" : "SCALAR"
        },
        {
            "bufferView" : 5,
            "componentType" : 5126,
            "count" : 3974,
            "max" : [
                20.060272216796875,
                13.661001205444336,
                15.53237533569336
            ],
            "min" : [
                -22.461584091186523,
                -9.631319046020508,
                -11.39657211303711
            ],
            "type" : "VEC3"
        },
        {
            "bufferView" : 6,
            "componentType" : 5126,
            "count" : 3974,
            "type" : "VEC3"
        },
        {
            "bufferView" : 7,
            "componentType" : 5126,
            "count" : 3974,
            "type" : "VEC2"
        },
        {
            "bufferView" : 8,
            "componentType" : 5123,
            "count" : 13008,
            "type" : "SCALAR"
        },
        {
            "bufferView" : 9,
            "componentType" : 5126,
            "count" : 2913,
            "max" : [
                16.97528839111328,
                11.055059432983398,
                8.362430572509766
            ],
            "min" : [
                -23.2799072265625,
                -9.845624923706055,
                -11.408008575439453
            ],
            "type" : "VEC3"
        },
        {
            "bufferView" : 10,
            "componentType" : 5126,
            "count" : 2913,
            "type" : "VEC3"
        },
        {
            "bufferView" : 11,
            "componentType" : 5126,
            "count" : 2913,
            "type" : "VEC2"
        },
        {
            "bufferView" : 12,
            "componentType" : 5123,
            "count" : 10380,
            "type" : "SCALAR"
        },
        {
            "bufferView" : 13,
            "componentType" : 5126,
            "count" : 80,
            "max" : [
                19.560426712036133,
                13.33112621307373,
                -1.9747029542922974
            ],
            "min" : [
                -2.6421964168548584,
                -4.499357223510742,
                -10.094514846801758
            ],
            "type" : "VEC3"
        },
        {
            "bufferView" : 14,
            "componentType" : 5126,
            "count" : 80,
            "type" : "VEC3"
        },
        {
            "bufferView" : 15,
            "componentType" : 5126,
            "count" : 80,
            "type" : "VEC2"
        },
        {
            "bufferView" : 16,
            "componentType" : 5123,
            "count" : 216,
            "type" : "SCALAR"
        },
        {
            "bufferView" : 17,
            "componentType" : 5126,
            "count" : 98,
            "max" : [
                2.6142728328704834,
                13.166902542114258,
                -1.827048897743225
            ],
            "min" : [
                -2.787523031234741,
                13.166902542114258,
                -3.7307426929473877
            ],
            "type" : "VEC3"
        },
        {
            "bufferView" : 18,
            "componentType" : 5126,
            "count" : 98,
            "type" : "VEC3"
        },
        {
            "bufferView" : 19,
            "componentType" : 5126,
            "count" : 98,
            "type" : "VEC2"
        },
        {
            "bufferView" : 20,
            "componentType" : 5123,
            "count" : 432,
            "type" : "SCALAR"
        }
    ],
    "bufferViews" : [
        {
            "buffer" : 0,
            "byteLength" : 4056,
            "byteOffset" : 0
        },
        {
            "buffer" : 0,
            "byteLength" : 4056,
            "byteOffset" : 4056
        },
        {
            "buffer" : 0,
            "byteLength" : 2704,
            "byteOffset" : 8112
        },
        {
            "buffer" : 0,
            "byteLength" : 2256,
            "byteOffset" : 10816
        },
        {
            "buffer" : 0,
            "byteLength" : 41035,
            "byteOffset" : 13072
        },
        {
            "buffer" : 0,
            "byteLength" : 47688,
            "byteOffset" : 54108
        },
        {
            "buffer" : 0,
            "byteLength" : 47688,
            "byteOffset" : 101796
        },
        {
            "buffer" : 0,
            "byteLength" : 31792,
            "byteOffset" : 149484
        },
        {
            "buffer" : 0,
            "byteLength" : 26016,
            "byteOffset" : 181276
        },
        {
            "buffer" : 0,
            "byteLength" : 34956,
            "byteOffset" : 207292
        },
        {
            "buffer" : 0,
            "byteLength" : 34956,
            "byteOffset" : 242248
        },
        {
            "buffer" : 0,
            "byteLength" : 23304,
            "byteOffset" : 277204
        },
        {
            "buffer" : 0,
            "byteLength" : 20760,
            "byteOffset" : 300508
        },
        {
            "buffer" : 0,
            "byteLength" : 960,
            "byteOffset" : 321268
        },
        {
            "buffer" : 0,
            "byteLength" : 960,
            "byteOffset" : 322228
        },
        {
            "buffer" : 0,
            "byteLength" : 640,
            "byteOffset" : 323188
        },
        {
            "buffer" : 0,
            "byteLength" : 432,
            "byteOffset" : 323828
        },
        {
            "buffer" : 0,
            "byteLength" : 1176,
            "byteOffset" : 324260
        },
        {
            "buffer" : 0,
            "byteLength" : 1176,
            "byteOffset" : 325436
        },
        {
            "buffer" : 0,
            "byteLength" : 784,
            "byteOffset" : 326612
        },
        {
            "buffer" : 0,
            "byteLength" : 864,
            "byteOffset" : 327396
        },
        {
            "buffer" : 0,
            "byteLength" : 1512385,
            "byteOffset" : 328260
        }
    ],
    "samplers" : [
        {
            "magFilter" : 9729,
            "minFilter" : 9987
        }
    ],
    "buffers" : [
        {
            "byteLength" : 1840648,
            "uri" : "data:application/octet-stream;base64,"
        }
    ]
}
